# xmcd CD database file
#
# Track frame offsets:
#	150
#	32866
#	62758
#	89204
#	115147
#	139942
#	166623
#	191030
#	215352
#	252683
#	279190
#
# Disc length: 4220 seconds
#
# Revision: 0
# Processed by: cddbd v1.5.2PL0 Copyright (c) Steve Scherf et al.
# Submitted via: CDex 1.70beta2
#
DISCID=a5107a0b
DTITLE=Various Artist - Jazz Roads CD199 - Swing - Jam Sessions Vol.9 (1956)
DYEAR=2006
DGENRE=Jazz
TTITLE0=Buck Clayton Jam Session - All The Cats Join In
TTITLE1=Buck Clayton Jam Session - Don't You Miss Your Baby
TTITLE2=Jam Session At Riverside - Undecided
TTITLE3=Jam Session At Riverside - Broadway
TTITLE4=Jam Session At Riverside - I Want To Be Happy
TTITLE5=Jam Session At Riverside - Session At Riverside
TTITLE6=Jam Session At Riverside - Escape Hatch
TTITLE7=Jam Session At Riverside - Out Of Nowhere
TTITLE8=Buck Clayton And His All Stars - You Can Depend On Me
TTITLE9=Buck Clayton And His All Stars - Newport Jump
TTITLE10=Buck Clayton And His All Stars - In A Mellow Tone
EXTD=YEAR: 2006
EXTT0=
EXTT1=
EXTT2=
EXTT3=
EXTT4=
EXTT5=
EXTT6=
EXTT7=
EXTT8=
EXTT9=
EXTT10=
PLAYORDER=
